<svg xmlns="http://www.w3.org/2000/svg" width="221" height="55" viewBox="0 0 221 55">
  <g  transform="translate(-28 -264)">
    <rect  width="221" height="55" transform="translate(28 264)" fill="#fff"/>
    <g id="logo" transform="translate(30.481 268.07)">
      <path id="Контур_1" data-name="Контур 1" d="M24.771,31.851h8.378v3.218H20.871V14.108h3.9V31.851Zm16.118,3.218H36.976V14.108h3.913Zm19.6-.311a13.332,13.332,0,0,1-3.862.544,12.9,12.9,0,0,1-4.647-.8,10.352,10.352,0,0,1-3.55-2.218,9.71,9.71,0,0,1-2.269-3.392,11.369,11.369,0,0,1-.8-4.3,11.863,11.863,0,0,1,.768-4.334,9.551,9.551,0,0,1,5.61-5.6,12.41,12.41,0,0,1,4.524-.782,13.2,13.2,0,0,1,2.384.2,12.038,12.038,0,0,1,2.059.558,8.935,8.935,0,0,1,1.731.863,10.469,10.469,0,0,1,1.436,1.116l-1.117,1.769a1.064,1.064,0,0,1-.681.514,1.225,1.225,0,0,1-.914-.21l-.955-.55a6.1,6.1,0,0,0-1.066-.478,8.737,8.737,0,0,0-1.319-.334,9.707,9.707,0,0,0-1.689-.13,7.242,7.242,0,0,0-2.8.522A5.932,5.932,0,0,0,51.2,19.214a6.709,6.709,0,0,0-1.363,2.334,9.145,9.145,0,0,0-.479,3.044A9.344,9.344,0,0,0,49.87,27.8a6.769,6.769,0,0,0,1.45,2.391,6.16,6.16,0,0,0,2.254,1.493,8.022,8.022,0,0,0,2.942.515,8.151,8.151,0,0,0,2.072-.24,9.613,9.613,0,0,0,1.784-.66V27.49H57.733a.794.794,0,0,1-.587-.21.7.7,0,0,1-.21-.514V24.56h6.957v8.48a11.119,11.119,0,0,1-3.4,1.718Zm25.882.311H82.461V25.907H72.618v9.162H68.7V14.108h3.913v9.016h9.843V14.108h3.915Zm20.352-20.961v3.2h-6.321V35.069h-3.9V17.312H90.189v-3.2Zm22.163,3.813a1.333,1.333,0,0,1-.37.443.817.817,0,0,1-.485.138,1.243,1.243,0,0,1-.659-.226q-.418-.26-.849-.5a6.873,6.873,0,0,0-1.151-.5,4.839,4.839,0,0,0-1.559-.225,4.657,4.657,0,0,0-1.419.195,2.968,2.968,0,0,0-1.023.544,2.155,2.155,0,0,0-.615.833,2.724,2.724,0,0,0-.2,1.065,1.853,1.853,0,0,0,.413,1.232,3.448,3.448,0,0,0,1.1.841,10.258,10.258,0,0,0,1.551.623q.869.276,1.782.587a16.652,16.652,0,0,1,1.784.725,6.192,6.192,0,0,1,1.551,1.044,4.753,4.753,0,0,1,1.1,1.544,5.352,5.352,0,0,1,.413,2.218,7.191,7.191,0,0,1-.487,2.659,6.115,6.115,0,0,1-1.419,2.16,6.709,6.709,0,0,1-2.284,1.45,8.394,8.394,0,0,1-3.088.529,9.9,9.9,0,0,1-1.97-.2,10.338,10.338,0,0,1-1.863-.558,9.892,9.892,0,0,1-1.674-.87,7.953,7.953,0,0,1-1.391-1.131l1.144-1.869a1.23,1.23,0,0,1,.377-.341.95.95,0,0,1,.493-.138,1.385,1.385,0,0,1,.783.3q.418.3,1,.66a7.849,7.849,0,0,0,1.355.66,5.215,5.215,0,0,0,1.863.3,3.821,3.821,0,0,0,2.58-.791,2.84,2.84,0,0,0,.914-2.268,2.113,2.113,0,0,0-.413-1.349,3.358,3.358,0,0,0-1.095-.877,8.247,8.247,0,0,0-1.551-.6q-.889-.252-1.769-.536a15.229,15.229,0,0,1-1.769-.7,5.767,5.767,0,0,1-1.551-1.058,4.814,4.814,0,0,1-1.093-1.631,6.208,6.208,0,0,1-.413-2.414,5.686,5.686,0,0,1,.457-2.232A5.769,5.769,0,0,1,118.7,15.73a6.493,6.493,0,0,1,2.146-1.349,7.878,7.878,0,0,1,2.927-.507,9.793,9.793,0,0,1,3.422.579,7.733,7.733,0,0,1,2.667,1.623l-.973,1.845Zm8.255-3.791a1.028,1.028,0,0,1,.319.088,1.048,1.048,0,0,1,.268.188,3.022,3.022,0,0,1,.289.327l10.989,14.031c-.03-.338-.053-.671-.074-1q-.027-.456-.028-.914V14.108h3.435V35.069h-2a1.768,1.768,0,0,1-.776-.152,1.8,1.8,0,0,1-.6-.515L138.022,20.444q.083.874.087,1.753V35.069h-3.435V14.108h2.044a3.764,3.764,0,0,1,.428.022Zm42.086,20.939V14.108h7.219a13.781,13.781,0,0,1,3.522.392,6.7,6.7,0,0,1,2.4,1.116,4.331,4.331,0,0,1,1.37,1.753,5.894,5.894,0,0,1,.434,2.32,4.58,4.58,0,0,1-.217,1.414,4.109,4.109,0,0,1-.674,1.261,5.039,5.039,0,0,1-1.159,1.065,7.028,7.028,0,0,1-1.674.812q4.317.97,4.318,4.668a5.922,5.922,0,0,1-.508,2.464,5.424,5.424,0,0,1-1.478,1.95,7.053,7.053,0,0,1-2.391,1.283,10.424,10.424,0,0,1-3.246.464h-7.915Zm3.9-11.886h3.1a5.218,5.218,0,0,0,3.022-.725,2.629,2.629,0,0,0,1.021-2.305,2.736,2.736,0,0,0-.927-2.334,4.851,4.851,0,0,0-2.9-.7h-3.32v6.06Zm0,2.7v6.145h3.943a5.566,5.566,0,0,0,1.827-.26,3.172,3.172,0,0,0,1.182-.7,2.565,2.565,0,0,0,.638-1.015,3.831,3.831,0,0,0,.194-1.232A3.273,3.273,0,0,0,190.7,27.6a2.3,2.3,0,0,0-.681-.928,3.182,3.182,0,0,0-1.2-.587,6.687,6.687,0,0,0-1.763-.2h-3.928Z"/>
      <path id="Контур_2" data-name="Контур 2" d="M.519-1.07H215.052V48.776H.519Z" fill="none" stroke="#ffde17" stroke-miterlimit="10" stroke-width="2.899"/>
      <path id="Контур_3" data-name="Контур 3" d="M163.791-1.033h3.986V12.315h-3.986Zm17.274,48.882L150.5,47.97l7.066-18.079H174Z" fill="#ffde17"/>
      <path id="Контур_4" data-name="Контур 4" d="M175.921,34.827h0l-2.018-5.138h0l-6.12-15.582H163.81l-6.072,15.431h0l-2.022,5.138h0l-.155.393h3.044a1.257,1.257,0,0,0,.827-.276,1.374,1.374,0,0,0,.449-.609l.128-.349c.006-.015.018-.029.023-.044l1.427-3.9h8.662l1.483,4.052,0,.006.086.236a1.574,1.574,0,0,0,.479.63,1.282,1.282,0,0,0,.825.254h3.016l-.094-.241Zm-13.474-7.673L165,20.211q.188-.479.383-1.116c.132-.425.264-.884.4-1.377q.2.74.406,1.37t.391,1.094l2.552,6.972Z"/>
    </g>
  </g>
</svg>
